<svg id="Layer_1" data-name="Layer 1" xmlns="http://www.w3.org/2000/svg" viewBox="0 0 494.11384 752.09957">
  <defs>
    <style>
      .cls-1 {
        fill: #070707;
      }

      .cls-2 {
        fill: #fff;
      }

      .cls-3 {
        fill: #c11d1c;
      }
    </style>
  </defs>
  <title>spiderman-head-001</title>
  <g>
    <path class="cls-1" d="M644.40273,286.93093l.12727-.28237c-.05661-.02975-.099-.05942-.15557-.08917-5.35784-63.75618-20.61163-116.64847-45.59158-158.038a228.73134,228.73134,0,0,0-15.93228-23.184A201.91189,201.91189,0,0,0,487.186,37.43483Q449.20707,24.483,402.85917,24h-6.77161q-46.2489.468-84.28428,13.43483a201.778,201.778,0,0,0-95.66458,67.90253,228.71579,228.71579,0,0,0-15.93238,23.184c-24.97994,41.38954-40.23364,94.28183-45.59157,158.038-.05652.02975-.099.05942-.15548.08917l.12717.28237q-2.14174,25.63622-2.14877,53.60571A602.68324,602.68324,0,0,0,171.42354,491.768c15.05587,57.93039,38.7211,110.77814,69.70916,154.33741q4.45317,6.26414,9.09011,12.24592a272.82465,272.82465,0,0,0,28.93825,31.58084c7.70464,7.25246,15.53653,15.15882,23.09975,22.7977,4.80652,4.84488,9.62728,9.71943,14.47625,14.47515,24.24485,23.82306,49.23885,45.14947,75.788,48.4487v.04462a59.59747,59.59747,0,0,0,6.88472.40121h.16963a59.59709,59.59709,0,0,0,6.88463-.40121v-.04462c26.54919-3.29923,51.55743-24.64043,75.78813-48.4487,4.849-4.77059,9.66964-9.63027,14.462-14.47515,7.57747-7.63888,15.40927-15.54524,23.11391-22.7977a274.04593,274.04593,0,0,0,28.93825-31.58084q4.7076-6.06347,9.20322-12.40938c30.93155-43.52961,54.55432-96.303,69.596-154.17395a602.68324,602.68324,0,0,0,18.98588-151.23138Q646.55151,312.58194,644.40273,286.93093Z" transform="translate(-152.43767 -24)"/>
    <g>
      <path class="cls-2" d="M541.54249,498.203c62.27311-23.91222,53.87574-131.39113,50.20017-161.48582-9.00521,13.04842-28.74033,34.40449-45.56328,50.32127-19.38173,18.33922-39.8944,53.62058-47.81111,67.94716-2.00745,3.641-3.78868,6.58366-5.59821,9.28848a247.17881,247.17881,0,0,1-28.45769,34.137C472.56842,503.53836,499.11752,515.99237,541.54249,498.203Z" transform="translate(-152.43767 -24)"/>
      <path class="cls-2" d="M248.87979,387.03847c-16.823-15.91678-36.55807-37.27285-45.56337-50.32127-3.68972,30.09469-12.10115,137.55872,50.11545,161.45616,42.49563,17.819,69.04473,5.365,77.30068.23774-5.4285-5.45417-18.13766-18.79992-28.44344-34.137-1.80953-2.68994-3.59076-5.64747-5.61236-9.28848C288.76,440.65905,268.24737,405.37769,248.87979,387.03847Z" transform="translate(-152.43767 -24)"/>
    </g>
    <g>
      <path class="cls-3" d="M591.54473,144.51245l-28.75448,63.45893c-10.77237,58.837,4.6652,94.72766,10.99851,106.34942,18.97173-26.64679,22.7039-47.80966,23.439-55.16615.3817-3.95323,3.20915-4.295,3.77462-4.3099,2.91218-.16345,4.5803,1.84282,7.90256,13.34576,2.26189,7.78745,4.62275,18.11626,6.67256,29.06923.53727,2.8534,1.08859,6.004,1.65406,9.40731l18.91522-16.49631C600.05521,264.98036,592.9302,180.98281,591.54473,144.51245Z" transform="translate(-152.43767 -24)"/>
      <path class="cls-3" d="M622.43393,345.63415l-.33925-.16346c1.76708,21.04395,2.3467,45.17913-.08481,69.40348-.04245,2.52648-.48066,35.99477,2.276,60.53125A598.35682,598.35682,0,0,0,639.4831,340.53664q0-16.36266-.7634-31.93751Z" transform="translate(-152.43767 -24)"/>
      <path class="cls-3" d="M619.42279,490.14807c-2.17708-10.23964-3.33633-24.49184-3.9301-37.85238a159.86477,159.86477,0,0,1-12.285,33.00749Z" transform="translate(-152.43767 -24)"/>
      <path class="cls-3" d="M618.57458,315.153c.74925,5.14214,1.49849,10.71523,2.16293,16.63011l13.24634-30.09469Z" transform="translate(-152.43767 -24)"/>
      <path class="cls-3" d="M616.0158,496.85066l-16.44125-4.91918c-12.24256,20.76157-29.108,35.23673-50.45469,43.24714a92.705,92.705,0,0,1-22.6757,5.365v.01487c-7.20982,16.88282-10.68747,44.76305-11.465,51.62909l35.07373,43.24724a187.49143,187.49143,0,0,1,6.02236-41.25574A194.45233,194.45233,0,0,1,616.0158,496.85066Z" transform="translate(-152.43767 -24)"/>
      <path class="cls-3" d="M557.20619,634.42425c25.0789-37.04989,44.9695-80.47545,58.88027-127.80953A187.07142,187.07142,0,0,0,557.20619,634.42425Z" transform="translate(-152.43767 -24)"/>
      <path class="cls-3" d="M636.74055,281.40238c-5.27312-54.28928-18.10946-100.31562-38.11317-137.49922C599.9138,176.123,606.1906,255.15688,636.74055,281.40238Z" transform="translate(-152.43767 -24)"/>
      <path class="cls-3" d="M470.71644,143.814c5.24482,26.91429,21.41748,44.56984,48.06554,52.5505a113.14455,113.14455,0,0,0,39.62581,3.99777l32.006-70.62223C564.89667,89.049,529.724,60.5,485.57438,45.01429Z" transform="translate(-152.43767 -24)"/>
      <path class="cls-3" d="M517.07141,203.57233c-23.80654-7.05925-40.44572-21.80191-48.85724-43.06881l-15.02748,99.95895c3.76039,11.32451,19.76334,51.748,55.31773,50.024l46.42573-102.44082A118.65426,118.65426,0,0,1,517.07141,203.57233Z" transform="translate(-152.43767 -24)"/>
      <path class="cls-3" d="M511.148,321.915c-2.38906,16.28832-3.95831,44.40639,6.06482,55.76065,9.24548-11.87438,18.90106-22.94627,28.44344-31.75917a210.83558,210.83558,0,0,0,23.43909-25.3093c-5.17416-8.44137-20.72475-38.56571-16.413-90.3286Z" transform="translate(-152.43767 -24)"/>
      <path class="cls-3" d="M544.77976,645.3326c1.131-.40121,2.17717-.78762,3.08189-1.1295l-38.01421-46.88824c-34.32448,5.35022-47.10422,44.451-49.01271,50.99l17.21879,65.95567C495.22987,663.18136,529.68153,650.772,544.77976,645.3326Z" transform="translate(-152.43767 -24)"/>
      <path class="cls-3" d="M504.56026,590.79069l-60.09612-74.11475-1.61161-.847c-2.65774,2.2589-9.68379,8.87232-11.98813,17.72985l26.76126,102.45569C463.66209,621.36087,477.51626,597.07711,504.56026,590.79069Z" transform="translate(-152.43767 -24)"/>
      <path class="cls-3" d="M451.08028,274.40264l-12.18606,81.055c5.47095,21.68308,25.47476,32.51713,32.98147,35.861l32.4725-71.64768c.08481-.60928.18377-1.18891.26858-1.7239C475.4523,317.04049,458.89793,291.40428,451.08028,274.40264Z" transform="translate(-152.43767 -24)"/>
      <path class="cls-3" d="M477.0922,397.08491c-2.0216,17.99734,2.94048,26.29012,6.14954,29.66373,8.55284-13.61325,18.67493-28.83149,29.50382-43.23236-9.0053-9.37765-10.82889-26.944-10.40483-42.1474Z" transform="translate(-152.43767 -24)"/>
      <path class="cls-3" d="M485.91363,713.33917q2.96874-2.96491,5.90925-5.95951c7.61983-7.69828,15.49408-15.64919,23.28353-22.99081a265.31167,265.31167,0,0,0,28.09-30.61489C527.41964,659.68893,500.8846,672.12806,485.91363,713.33917Z" transform="translate(-152.43767 -24)"/>
      <path class="cls-3" d="M397.95369,161.00885h3.15255c33.39137-.66879,58.83783-18.0271,63.03651-21.08858l14.61757-97.17985C455.74547,35.51772,430.412,31.69828,402.831,31.43079h-6.7151c-27.567.26749-52.88621,4.08693-75.887,11.30963l14.61757,97.20951C339.14407,143.04117,364.647,160.34006,397.95369,161.00885Z" transform="translate(-152.43767 -24)"/>
      <path class="cls-3" d="M472.41286,720.71054,454.09141,650.549c-17.26115-12.75125-38.82-15.72357-53.98894-15.97619H398.8302c-7.436.11892-33.16524,1.73878-54.22932,17.35831l-18.02456,68.7794c20.3289-7.26733,44.814-10.35856,72.91831-9.22907C427.613,710.352,452.084,713.44321,472.41286,720.71054Z" transform="translate(-152.43767 -24)"/>
      <path class="cls-3" d="M470.03785,412.64493l-18.0387,39.81421c.72094,3.19519,2.03575,6.67283,4.31179,8.76828a7.775,7.775,0,0,0,5.30133,2.036c3.73218-6.68771,9.91-17.50689,17.72767-30.21352C476.11673,430.06274,471.52229,423.95466,470.03785,412.64493Z" transform="translate(-152.43767 -24)"/>
      <path class="cls-3" d="M515.94047,541.12325a101.165,101.165,0,0,1-46.53875-11.488l-8.90624-4.62192L508.773,584.54881c1.45613-10.68547,4.52387-29.33673,9.81105-43.4701C517.70755,541.10837,516.817,541.12325,515.94047,541.12325Z" transform="translate(-152.43767 -24)"/>
      <path class="cls-3" d="M436.7878,369.54637l-9.55652,63.57785c3.73208,4.60705,11.50747,12.42426,19.311,9.68978l2.375-.83225,19.90484-43.916C461.584,394.84079,445.7082,386.20622,436.7878,369.54637Z" transform="translate(-152.43767 -24)"/>
      <path class="cls-3" d="M397.883,168.43964c-28.486-.56475-51.09092-12.20139-61.56632-18.69589L352.2207,255.573c11.83266,8.56028,27.12881,12.37971,45.4644,11.30972l.19793-.01487,3.42113.01487c18.3356,1.07,33.63175-2.74944,45.46432-11.30972l15.90408-105.82921c-10.47549,6.4945-33.06628,18.13114-61.49566,18.69589Z" transform="translate(-152.43767 -24)"/>
      <path class="cls-3" d="M400.15907,627.142c14.30653.23784,33.90033,2.77911,51.17564,12.84043l-27.02985-103.5109a112.43089,112.43089,0,0,0-21.36088-5.02322,29.68013,29.68013,0,0,0-3.16661-.1337h-.56547a29.5322,29.5322,0,0,0-3.1667.1337c-8.41152.92141-17.78427,4.45847-21.43155,5.92985L347.38588,641.27541c21.1206-12.5877,44.1779-14.01445,51.38772-14.13337Z" transform="translate(-152.43767 -24)"/>
      <path class="cls-3" d="M400.22973,718.89738v.05951c-.24038-.01488-.49481-.01488-.7351-.02975-.24037.01487-.49481.01487-.73518.02975v-.05951c-27.43976-1.07-51.1898,2.00637-70.74115,9.13991,23.26938,22.18832,47.11837,40.587,71.47633,40.63149,24.35787-.04454,48.20687-18.44317,71.47624-40.63149C451.43367,720.90375,427.68364,717.82739,400.22973,718.89738Z" transform="translate(-152.43767 -24)"/>
      <path class="cls-3" d="M401.00728,274.29859H397.982c-17.2471.9957-32.105-2.06578-44.30516-9.0804l12.99181,86.39034.01415.01478c.15548.08917,15.31031,8.33741,32.37354,9.39253h.87651c13.95314-.86191,27.48221-6.04867,32.18977-8.0252l13.18974-87.77245C433.12638,272.23281,418.25429,275.29429,401.00728,274.29859Z" transform="translate(-152.43767 -24)"/>
      <path class="cls-3" d="M444.50659,450.7649c-7.43605.5945-14.038-3.95314-18.66078-8.44136L420.29,479.23964l7.25219,9.91273,17.07747-37.67414C444.57725,451.24048,444.53489,451.00265,444.50659,450.7649Z" transform="translate(-152.43767 -24)"/>
      <path class="cls-3" d="M457.30048,470.0552a14.2401,14.2401,0,0,1-5.66888-3.26948,18.79172,18.79172,0,0,1-3.817-5.0976l-15.29615,33.75067C439.61517,489.22666,450.72679,478.91273,457.30048,470.0552Z" transform="translate(-152.43767 -24)"/>
      <path class="cls-3" d="M435.98205,512.2621l-8.72256-4.53276h-3.1384l3.83114,14.62374A48.18426,48.18426,0,0,1,435.98205,512.2621Z" transform="translate(-152.43767 -24)"/>
      <path class="cls-3" d="M398.85841,368.44663l-.099-.01488c-12.93521-.77274-24.59825-5.20155-30.76194-7.96578l10.24926,68.15515a54.464,54.464,0,0,0,19.65032,3.70061h3.20915a54.44523,54.44523,0,0,0,19.63616-3.70061l10.10794-67.17424c-6.72925,2.54127-18.378,6.25667-30.62061,6.98487Z" transform="translate(-152.43767 -24)"/>
      <polygon class="cls-3" points="253.645 476.299 274.341 476.299 271.203 472.004 262.381 459.951 255.525 459.951 238.589 459.951 231.733 459.951 222.911 472.004 219.773 476.299 240.469 476.299 253.645 476.299"/>
      <path class="cls-3" d="M399.2119,523.88386h.56547a33.50817,33.50817,0,0,1,3.88765.17833,108.62043,108.62043,0,0,1,18.43455,3.95314l-5.30133-20.286H382.3748L376.9179,528.595a84.61146,84.61146,0,0,1,18.40635-4.53276A33.37442,33.37442,0,0,1,399.2119,523.88386Z" transform="translate(-152.43767 -24)"/>
      <path class="cls-3" d="M397.883,439.75252a61.34823,61.34823,0,0,1-18.40635-2.86837L385.44254,476.52h28.10419l5.96576-39.63588a61.326,61.326,0,0,1-18.3921,2.86837Z" transform="translate(-152.43767 -24)"/>
      <path class="cls-3" d="M371.10761,522.76924l3.94425-15.0399h-3.32217l-8.29841,4.3098A35.82223,35.82223,0,0,1,371.10761,522.76924Z" transform="translate(-152.43767 -24)"/>
      <path class="cls-3" d="M330.61953,399.06152l19.45239,42.92023,2.375.83225c7.70464,2.70481,15.52229-5.09751,19.31107-9.68978l-9.27388-61.67553C353.19617,388.00451,337.801,396.04458,330.61953,399.06152Z" transform="translate(-152.43767 -24)"/>
      <path class="cls-3" d="M366.48487,495.48342l-15.31031-33.7953a18.788,18.788,0,0,1-3.817,5.0976,14.42336,14.42336,0,0,1-5.683,3.28435C348.26239,478.94248,359.40231,489.25641,366.48487,495.48342Z" transform="translate(-152.43767 -24)"/>
      <path class="cls-3" d="M360.4908,358.19219l-12.596-83.80443c-7.78944,17.00164-24.358,42.65273-53.52244,43.55927.08482.535.18378,1.11462.26859,1.7239l32.925,72.64338C334.76162,389.29746,353.73334,379.54827,360.4908,358.19219Z" transform="translate(-152.43767 -24)"/>
      <path class="cls-3" d="M341.13738,637.11419l26.86013-102.48544c-3.66142-13.13758-9.72614-17.7596-11.60643-18.91875h-.01415l-1.85189.95116L295.02269,590.0624C321.55773,596.8839,335.19982,622.02966,341.13738,637.11419Z" transform="translate(-152.43767 -24)"/>
      <path class="cls-3" d="M354.48259,450.7649c-.02821.23775-.07066.47558-.113.71333L371.447,489.15237l7.23813-9.91273-5.54171-36.9161C368.52063,446.81176,361.90449,451.34453,354.48259,450.7649Z" transform="translate(-152.43767 -24)"/>
      <path class="cls-3" d="M337.36284,463.26345a7.78483,7.78483,0,0,0,5.31548-2.036c2.276-2.09545,3.59076-5.57309,4.31171-8.76828l-17.52974-38.69959a36.23513,36.23513,0,0,1-9.93832,19.0823C327.39623,445.63764,333.61652,456.5312,337.36284,463.26345Z" transform="translate(-152.43767 -24)"/>
      <path class="cls-3" d="M281.91776,203.57233a118.6537,118.6537,0,0,1-37.85864,4.47334l46.42564,102.44082c35.5826,1.76853,51.54319-38.655,55.31781-50.00914L330.775,160.50352C322.36349,181.77042,305.7244,196.51308,281.91776,203.57233Z" transform="translate(-152.43767 -24)"/>
      <path class="cls-3" d="M321.21848,713.146l16.63908-63.4886c-1.82359-6.58366-14.40549-47.06666-48.05139-53.145L251.12753,644.2031c.919.35676,1.97915.758,3.1384,1.17412C270.73548,651.44077,308.0711,665.20251,321.21848,713.146Z" transform="translate(-152.43767 -24)"/>
      <path class="cls-3" d="M280.19305,196.3645c26.6623-7.98066,42.83487-25.63621,48.07969-52.5505L313.41488,45.01429C269.2652,60.48514,234.0926,89.03417,208.57539,129.72516l32.006,70.63711A113.05246,113.05246,0,0,0,280.19305,196.3645Z" transform="translate(-152.43767 -24)"/>
      <path class="cls-3" d="M315.57781,426.5108c3.70388-4.05718,9.599-13.212,6.77162-28.41532l-25.701-56.71172c.42415,15.18848-1.41369,32.74-10.41889,42.11765C297.00184,397.828,307.08148,412.95706,315.57781,426.5108Z" transform="translate(-152.43767 -24)"/>
      <path class="cls-3" d="M255.84933,653.86312a265.38874,265.38874,0,0,0,28.03344,30.52573c7.78953,7.34162,15.66379,15.29253,23.28352,22.99081,2.3468,2.363,4.67935,4.74085,7.0402,7.10388C302.76977,674.179,272.48841,660.209,255.84933,653.86312Z" transform="translate(-152.43767 -24)"/>
      <path class="cls-3" d="M229.87976,320.60722a212.21219,212.21219,0,0,0,23.45315,25.3093c9.54247,8.8129,19.198,19.88479,28.44353,31.75917,10.023-11.33938,8.45388-39.44258,6.06473-55.7309L246.321,230.30828C250.60451,282.05629,235.068,312.16585,229.87976,320.60722Z" transform="translate(-152.43767 -24)"/>
      <path class="cls-3" d="M248.37083,636.14815l35.38477-43.64843c-.28274-3.00207-3.37878-33.61687-11.21059-51.94122v-.01487a92.70506,92.70506,0,0,1-22.67569-5.365c-21.34673-8.01041-38.212-22.48557-50.44054-43.24714l-16.738,5.00834a227.9827,227.9827,0,0,1,57.98961,98.24984A211.71708,211.71708,0,0,1,248.37083,636.14815Z" transform="translate(-152.43767 -24)"/>
      <path class="cls-3" d="M338.49379,524.99848l-8.92039,4.6368a101.06622,101.06622,0,0,1-46.52469,11.488q-1.31477,0-2.62944-.04454c5.40029,14.49,8.31247,33.4682,9.599,43.70785Z" transform="translate(-152.43767 -24)"/>
      <path class="cls-3" d="M162.8424,290.17074l.29689.223,18.61833,16.25857c.56547-3.40336,1.11688-6.554,1.654-9.4074,2.04982-10.953,4.41076-21.26691,6.6585-29.05436,3.33633-11.48806,4.97624-13.49434,7.91671-13.34576.55133.01488,3.37869.35667,3.77454,4.3099.73509,7.35649,4.46727,28.53424,23.439,55.16615,6.33331-11.63664,21.77088-47.54216,10.98444-106.36429L207.4303,144.51245C206.05907,180.98281,198.93405,264.98036,162.8424,290.17074Z" transform="translate(-152.43767 -24)"/>
      <path class="cls-3" d="M183.36922,451.80523c-.56547,13.7172-1.66811,28.14782-3.81689,38.34284l16.22917-4.84489A161.36746,161.36746,0,0,1,183.36922,451.80523Z" transform="translate(-152.43767 -24)"/>
      <path class="cls-3" d="M200.36189,143.87341c-19.98965,37.18369-32.84014,83.22481-38.11317,137.529C192.81273,255.142,199.07538,176.06354,200.36189,143.87341Z" transform="translate(-152.43767 -24)"/>
      <path class="cls-3" d="M240.93487,633.17584a220.7521,220.7521,0,0,0-57.63631-125.20876C197.03971,554.246,216.4921,596.765,240.93487,633.17584Z" transform="translate(-152.43767 -24)"/>
      <path class="cls-3" d="M180.41469,315.16792l-15.33861-13.42,13.218,29.70836C178.9444,325.66019,179.66535,320.206,180.41469,315.16792Z" transform="translate(-152.43767 -24)"/>
      <path class="cls-3" d="M176.71081,412.02077v-.05941a385.96853,385.96853,0,0,1,.15548-66.14888L160.26956,308.51q-.76344,15.60467-.76339,32.02668a599.18531,599.18531,0,0,0,15.14059,134.67557C177.40346,449.65028,176.75317,413.75955,176.71081,412.02077Z" transform="translate(-152.43767 -24)"/>
    </g>
  </g>
</svg>
